<svg width="22" height="19" viewBox="0 0 22 19" fill="none" xmlns="http://www.w3.org/2000/svg">
<path d="M18.2347 18.2425L14.7155 14.754C14.1256 14.9822 13.5195 15.1469 12.897 15.2483C12.2746 15.3496 11.6423 15.4003 11 15.4003C8.89481 15.4003 6.96689 14.8404 5.21623 13.7205C3.46573 12.6005 2.07831 11.1245 1.05398 9.29253C0.970643 9.14903 0.909727 9.00286 0.871227 8.85403C0.832727 8.70536 0.813477 8.55411 0.813477 8.40028C0.813477 8.24645 0.83431 8.09353 0.875977 7.94153C0.917643 7.7897 0.980143 7.6452 1.06348 7.50803C1.46214 6.8452 1.88589 6.20386 2.33473 5.58403C2.78339 4.96403 3.30514 4.41561 3.89998 3.93878L1.64223 1.66553C1.50389 1.5272 1.43306 1.35578 1.42973 1.15128C1.42656 0.94678 1.50256 0.766948 1.65773 0.611781C1.80256 0.466948 1.97823 0.394531 2.18473 0.394531C2.39106 0.394531 2.56664 0.466948 2.71148 0.611781L19.2885 17.1888C19.427 17.3273 19.5004 17.4987 19.5087 17.703C19.5171 17.9075 19.4436 18.0874 19.2885 18.2425C19.1436 18.3874 18.968 18.4598 18.7615 18.4598C18.5551 18.4598 18.3796 18.3874 18.2347 18.2425ZM11 12.4773C11.2218 12.4773 11.4336 12.4641 11.6355 12.4378C11.8375 12.4114 12.0346 12.354 12.227 12.2655L7.13473 7.17328C7.05256 7.36561 6.99673 7.56278 6.96723 7.76478C6.93773 7.96661 6.92298 8.17845 6.92298 8.40028C6.92298 9.53495 7.31881 10.4981 8.11048 11.2898C8.90214 12.0814 9.86531 12.4773 11 12.4773ZM11 1.40028C13.1115 1.40028 15.0483 1.96278 16.8105 3.08778C18.5726 4.21278 19.9627 5.6977 20.9807 7.54253C21.0576 7.66953 21.1168 7.80578 21.1585 7.95128C21.2001 8.09678 21.221 8.24645 21.221 8.40028C21.221 8.55411 21.2027 8.70378 21.1662 8.84928C21.1297 8.99478 21.073 9.13103 20.996 9.25803C20.6921 9.8362 20.3525 10.381 19.977 10.8925C19.6013 11.404 19.1814 11.8854 18.7172 12.3368C18.5096 12.5444 18.2634 12.6399 17.9787 12.6233C17.6942 12.6066 17.4481 12.4944 17.2402 12.2868L15.1442 10.2003C15.0404 10.0964 14.9718 9.97653 14.9385 9.84053C14.9051 9.7047 14.9071 9.56303 14.9442 9.41553C14.9916 9.24386 15.0255 9.0772 15.046 8.91553C15.0666 8.75403 15.077 8.58228 15.077 8.40028C15.077 7.26561 14.6811 6.30245 13.8895 5.51078C13.0978 4.71911 12.1346 4.32328 11 4.32328C10.818 4.32328 10.6478 4.3352 10.4895 4.35903C10.3311 4.3827 10.1692 4.41828 10.0037 4.46578C9.85639 4.50928 9.70898 4.51436 9.56148 4.48103C9.41414 4.4477 9.28856 4.37911 9.18473 4.27528L8.25373 3.34453C7.96923 3.05986 7.87473 2.72845 7.97023 2.35028C8.06573 1.97211 8.30581 1.73111 8.69048 1.62728C9.06864 1.55028 9.44939 1.4932 9.83273 1.45603C10.2161 1.41886 10.6051 1.40028 11 1.40028ZM12.9365 6.51178C13.1391 6.73495 13.3061 6.98528 13.4375 7.26278C13.5688 7.54028 13.6511 7.83036 13.6845 8.13303C13.7011 8.25353 13.656 8.3372 13.549 8.38403C13.442 8.4307 13.3416 8.40728 13.248 8.31378L11.102 6.17728C11.0083 6.08361 10.9875 5.98328 11.0395 5.87628C11.0913 5.76928 11.1775 5.71578 11.298 5.71578C11.6211 5.74261 11.9192 5.8237 12.1922 5.95903C12.4654 6.0942 12.7135 6.27845 12.9365 6.51178Z" fill="#1C1B1F"/>
</svg>
