<svg width="24" height="25" viewBox="0 0 24 25" fill="none" xmlns="http://www.w3.org/2000/svg">
<g id="visibility">
<mask id="mask0_202_2983" style="mask-type:alpha" maskUnits="userSpaceOnUse" x="0" y="0" width="24" height="25">
<rect id="Bounding box" y="0.400391" width="24" height="24" fill="#D9D9D9"/>
</mask>
<g mask="url(#mask0_202_2983)">
<path id="visibility_2" d="M12.0024 15.9774C13.1356 15.9774 14.098 15.5808 14.8897 14.7876C15.6814 13.9945 16.0772 13.0313 16.0772 11.8981C16.0772 10.765 15.6806 9.80256 14.8874 9.01089C14.0943 8.21922 13.1311 7.82339 11.9979 7.82339C10.8648 7.82339 9.90237 8.21997 9.1107 9.01314C8.31903 9.80631 7.9232 10.7695 7.9232 11.9026C7.9232 13.0358 8.31978 13.9982 9.11295 14.7899C9.90612 15.5816 10.8693 15.9774 12.0024 15.9774ZM12.0002 14.6004C11.2502 14.6004 10.6127 14.3379 10.0877 13.8129C9.5627 13.2879 9.3002 12.6504 9.3002 11.9004C9.3002 11.1504 9.5627 10.5129 10.0877 9.98789C10.6127 9.46289 11.2502 9.20039 12.0002 9.20039C12.7502 9.20039 13.3877 9.46289 13.9127 9.98789C14.4377 10.5129 14.7002 11.1504 14.7002 11.9004C14.7002 12.6504 14.4377 13.2879 13.9127 13.8129C13.3877 14.3379 12.7502 14.6004 12.0002 14.6004ZM12.0002 18.9004C9.89503 18.9004 7.9697 18.3388 6.2242 17.2156C4.4787 16.0926 3.08545 14.6151 2.04445 12.7831C1.96112 12.6395 1.9002 12.4947 1.8617 12.3489C1.82337 12.2031 1.8042 12.0534 1.8042 11.8999C1.8042 11.7464 1.82337 11.5969 1.8617 11.4514C1.9002 11.3059 1.96112 11.1613 2.04445 11.0176C3.08545 9.18564 4.4787 7.70814 6.2242 6.58514C7.9697 5.46197 9.89503 4.90039 12.0002 4.90039C14.1054 4.90039 16.0307 5.46197 17.7762 6.58514C19.5217 7.70814 20.9149 9.18564 21.9559 11.0176C22.0393 11.1613 22.1002 11.3061 22.1387 11.4519C22.177 11.5977 22.1962 11.7474 22.1962 11.9009C22.1962 12.0544 22.177 12.2039 22.1387 12.3494C22.1002 12.4949 22.0393 12.6395 21.9559 12.7831C20.9149 14.6151 19.5217 16.0926 17.7762 17.2156C16.0307 18.3388 14.1054 18.9004 12.0002 18.9004Z" fill="#1C1B1F"/>
</g>
</g>
</svg>
